<?xml version="1.0" encoding="UTF-8" standalone="no"?>
<svg version="1.1" width="512" height="512" viewBox="0 0 512 512"
     xmlns="http://www.w3.org/2000/svg">
  <g fill="#000000">
    <!-- antenna -->
    <circle cx="256" cy="60" r="22"/>
    <rect x="247" y="78" width="18" height="54"/>
    <!-- side ears / bolts -->
    <rect x="64" y="228" width="28" height="72" rx="10"/>
    <rect x="420" y="228" width="28" height="72" rx="10"/>
    <!-- head with eyes + mouth grille punched out (evenodd) -->
    <path fill-rule="evenodd" d="
      M 152 124
      H 360
      A 52 52 0 0 1 412 176
      V 372
      A 52 52 0 0 1 360 424
      H 152
      A 52 52 0 0 1 100 372
      V 176
      A 52 52 0 0 1 152 124
      Z
      M 168 212 H 232 V 280 H 168 Z
      M 280 212 H 344 V 280 H 280 Z
      M 180 336 H 196 V 372 H 180 Z
      M 212 336 H 228 V 372 H 212 Z
      M 244 336 H 268 V 372 H 244 Z
      M 284 336 H 300 V 372 H 284 Z
      M 316 336 H 332 V 372 H 316 Z
    "/>
  </g>
</svg>
