<?xml version="1.0" encoding="UTF-8" standalone="no"?>
<svg version="1.1" width="768" height="768" viewBox="0 0 768 768"
     xmlns="http://www.w3.org/2000/svg">
  <g transform="translate(128,128)" fill="#000000">
    <circle cx="256" cy="60" r="22"/>
    <rect x="247" y="78" width="18" height="54"/>
    <rect x="64" y="228" width="28" height="72" rx="10"/>
    <rect x="420" y="228" width="28" height="72" rx="10"/>
    <path fill-rule="evenodd" d="
      M 152 124 H 360 A 52 52 0 0 1 412 176 V 372 A 52 52 0 0 1 360 424 H 152 A 52 52 0 0 1 100 372 V 176 A 52 52 0 0 1 152 124 Z
      M 216.26 219.84 L 226.16 229.74 L 209.90 246.00 L 226.16 262.26 L 216.26 272.16 L 200.00 255.90 L 183.74 272.16 L 173.84 262.26 L 190.10 246.00 L 173.84 229.74 L 183.74 219.84 L 200.00 236.10 Z
      M 328.26 219.84 L 338.16 229.74 L 321.90 246.00 L 338.16 262.26 L 328.26 272.16 L 312.00 255.90 L 295.74 272.16 L 285.84 262.26 L 302.10 246.00 L 285.84 229.74 L 295.74 219.84 L 312.00 236.10 Z
      M 180 336 H 196 V 372 H 180 Z
      M 212 336 H 228 V 372 H 212 Z
      M 244 336 H 268 V 372 H 244 Z
      M 284 336 H 300 V 372 H 284 Z
      M 316 336 H 332 V 372 H 316 Z
    "/>
  </g>
</svg>
